<mxfile host="app.diagrams.net" modified="2023-12-22T20:11:44.331Z" agent="Mozilla/5.0 (Windows NT 10.0; Win64; x64) AppleWebKit/537.36 (KHTML, like Gecko) Chrome/119.0.0.0 Safari/537.36" etag="f1Q18SC30XgRmAXeyNvX" version="22.1.11" type="github">
  <diagram id="R2lEEEUBdFMjLlhIrx00" name="Page-1">
    <mxGraphModel dx="1960" dy="427" grid="1" gridSize="10" guides="1" tooltips="1" connect="1" arrows="1" fold="1" page="1" pageScale="1" pageWidth="850" pageHeight="1100" math="0" shadow="0" extFonts="Permanent Marker^https://fonts.googleapis.com/css?family=Permanent+Marker">
      <root>
        <mxCell id="0" />
        <mxCell id="1" parent="0" />
        <mxCell id="lAmJWh5BscD6mKWXJsh0-39" value="&lt;br&gt;&lt;br&gt;&lt;br&gt;&lt;br&gt;&lt;br&gt;&lt;br&gt;&lt;br&gt;&lt;br&gt;&lt;br&gt;&lt;br&gt;SPK" style="shape=note;size=20;whiteSpace=wrap;html=1;" vertex="1" parent="1">
          <mxGeometry x="170" y="380" width="230" height="170" as="geometry" />
        </mxCell>
        <mxCell id="lAmJWh5BscD6mKWXJsh0-57" style="edgeStyle=orthogonalEdgeStyle;rounded=0;orthogonalLoop=1;jettySize=auto;html=1;entryX=0.5;entryY=0;entryDx=0;entryDy=0;" edge="1" parent="1" source="lAmJWh5BscD6mKWXJsh0-1" target="lAmJWh5BscD6mKWXJsh0-54">
          <mxGeometry relative="1" as="geometry" />
        </mxCell>
        <mxCell id="lAmJWh5BscD6mKWXJsh0-58" style="edgeStyle=orthogonalEdgeStyle;rounded=0;orthogonalLoop=1;jettySize=auto;html=1;entryX=0.5;entryY=0;entryDx=0;entryDy=0;" edge="1" parent="1" source="lAmJWh5BscD6mKWXJsh0-1" target="lAmJWh5BscD6mKWXJsh0-55">
          <mxGeometry relative="1" as="geometry" />
        </mxCell>
        <mxCell id="lAmJWh5BscD6mKWXJsh0-59" style="edgeStyle=orthogonalEdgeStyle;rounded=0;orthogonalLoop=1;jettySize=auto;html=1;entryX=0.5;entryY=0;entryDx=0;entryDy=0;" edge="1" parent="1" source="lAmJWh5BscD6mKWXJsh0-1" target="lAmJWh5BscD6mKWXJsh0-56">
          <mxGeometry relative="1" as="geometry" />
        </mxCell>
        <mxCell id="lAmJWh5BscD6mKWXJsh0-1" value="piezas" style="whiteSpace=wrap;html=1;align=center;fillColor=#dae8fc;strokeColor=#6c8ebf;" vertex="1" parent="1">
          <mxGeometry x="490" y="340" width="50" height="20" as="geometry" />
        </mxCell>
        <mxCell id="lAmJWh5BscD6mKWXJsh0-50" style="edgeStyle=orthogonalEdgeStyle;rounded=0;orthogonalLoop=1;jettySize=auto;html=1;entryX=1;entryY=0.5;entryDx=0;entryDy=0;" edge="1" parent="1" source="lAmJWh5BscD6mKWXJsh0-2" target="lAmJWh5BscD6mKWXJsh0-42">
          <mxGeometry relative="1" as="geometry" />
        </mxCell>
        <mxCell id="lAmJWh5BscD6mKWXJsh0-51" style="edgeStyle=orthogonalEdgeStyle;rounded=0;orthogonalLoop=1;jettySize=auto;html=1;entryX=1;entryY=0.5;entryDx=0;entryDy=0;" edge="1" parent="1" source="lAmJWh5BscD6mKWXJsh0-2" target="lAmJWh5BscD6mKWXJsh0-44">
          <mxGeometry relative="1" as="geometry" />
        </mxCell>
        <mxCell id="lAmJWh5BscD6mKWXJsh0-52" style="edgeStyle=orthogonalEdgeStyle;rounded=0;orthogonalLoop=1;jettySize=auto;html=1;entryX=1;entryY=0.5;entryDx=0;entryDy=0;" edge="1" parent="1" source="lAmJWh5BscD6mKWXJsh0-2" target="lAmJWh5BscD6mKWXJsh0-45">
          <mxGeometry relative="1" as="geometry" />
        </mxCell>
        <mxCell id="lAmJWh5BscD6mKWXJsh0-53" style="edgeStyle=orthogonalEdgeStyle;rounded=0;orthogonalLoop=1;jettySize=auto;html=1;entryX=1;entryY=0.5;entryDx=0;entryDy=0;" edge="1" parent="1" source="lAmJWh5BscD6mKWXJsh0-2" target="lAmJWh5BscD6mKWXJsh0-43">
          <mxGeometry relative="1" as="geometry" />
        </mxCell>
        <mxCell id="lAmJWh5BscD6mKWXJsh0-2" value="proveedor" style="whiteSpace=wrap;html=1;align=center;fillColor=#ffe6cc;strokeColor=#d79b00;" vertex="1" parent="1">
          <mxGeometry x="60" y="340" width="70" height="20" as="geometry" />
        </mxCell>
        <mxCell id="lAmJWh5BscD6mKWXJsh0-61" value="" style="edgeStyle=orthogonalEdgeStyle;rounded=0;orthogonalLoop=1;jettySize=auto;html=1;" edge="1" parent="1" source="lAmJWh5BscD6mKWXJsh0-3" target="lAmJWh5BscD6mKWXJsh0-60">
          <mxGeometry relative="1" as="geometry" />
        </mxCell>
        <mxCell id="lAmJWh5BscD6mKWXJsh0-3" value="categoria" style="whiteSpace=wrap;html=1;align=center;fillColor=#d5e8d4;strokeColor=#82b366;" vertex="1" parent="1">
          <mxGeometry x="810" y="340" width="60" height="20" as="geometry" />
        </mxCell>
        <mxCell id="lAmJWh5BscD6mKWXJsh0-6" value="" style="edgeStyle=orthogonalEdgeStyle;rounded=0;orthogonalLoop=1;jettySize=auto;html=1;" edge="1" parent="1" source="lAmJWh5BscD6mKWXJsh0-4" target="lAmJWh5BscD6mKWXJsh0-2">
          <mxGeometry relative="1" as="geometry" />
        </mxCell>
        <mxCell id="lAmJWh5BscD6mKWXJsh0-7" value="" style="edgeStyle=orthogonalEdgeStyle;rounded=0;orthogonalLoop=1;jettySize=auto;html=1;" edge="1" parent="1" source="lAmJWh5BscD6mKWXJsh0-4" target="lAmJWh5BscD6mKWXJsh0-1">
          <mxGeometry relative="1" as="geometry" />
        </mxCell>
        <mxCell id="lAmJWh5BscD6mKWXJsh0-4" value="suministra" style="shape=rhombus;perimeter=rhombusPerimeter;whiteSpace=wrap;html=1;align=center;fillColor=#6a00ff;fontColor=#ffffff;strokeColor=#3700CC;" vertex="1" parent="1">
          <mxGeometry x="240" y="330" width="90" height="40" as="geometry" />
        </mxCell>
        <mxCell id="lAmJWh5BscD6mKWXJsh0-8" value="" style="edgeStyle=orthogonalEdgeStyle;rounded=0;orthogonalLoop=1;jettySize=auto;html=1;" edge="1" parent="1" source="lAmJWh5BscD6mKWXJsh0-5" target="lAmJWh5BscD6mKWXJsh0-1">
          <mxGeometry relative="1" as="geometry" />
        </mxCell>
        <mxCell id="lAmJWh5BscD6mKWXJsh0-9" value="" style="edgeStyle=orthogonalEdgeStyle;rounded=0;orthogonalLoop=1;jettySize=auto;html=1;" edge="1" parent="1" source="lAmJWh5BscD6mKWXJsh0-5" target="lAmJWh5BscD6mKWXJsh0-3">
          <mxGeometry relative="1" as="geometry" />
        </mxCell>
        <mxCell id="lAmJWh5BscD6mKWXJsh0-5" value="tiene" style="shape=rhombus;perimeter=rhombusPerimeter;whiteSpace=wrap;html=1;align=center;fillColor=#fa6800;fontColor=#000000;strokeColor=#C73500;" vertex="1" parent="1">
          <mxGeometry x="640" y="335" width="70" height="30" as="geometry" />
        </mxCell>
        <mxCell id="lAmJWh5BscD6mKWXJsh0-14" value="" style="edgeStyle=orthogonalEdgeStyle;rounded=0;orthogonalLoop=1;jettySize=auto;html=1;" edge="1" parent="1" source="lAmJWh5BscD6mKWXJsh0-10" target="lAmJWh5BscD6mKWXJsh0-2">
          <mxGeometry relative="1" as="geometry" />
        </mxCell>
        <mxCell id="lAmJWh5BscD6mKWXJsh0-10" value="codigo_pv" style="ellipse;whiteSpace=wrap;html=1;align=center;fontStyle=4;fillColor=#ffe6cc;strokeColor=#d79b00;" vertex="1" parent="1">
          <mxGeometry x="60" y="230" width="70" height="30" as="geometry" />
        </mxCell>
        <mxCell id="lAmJWh5BscD6mKWXJsh0-15" value="" style="edgeStyle=orthogonalEdgeStyle;rounded=0;orthogonalLoop=1;jettySize=auto;html=1;" edge="1" parent="1" source="lAmJWh5BscD6mKWXJsh0-11" target="lAmJWh5BscD6mKWXJsh0-1">
          <mxGeometry relative="1" as="geometry" />
        </mxCell>
        <mxCell id="lAmJWh5BscD6mKWXJsh0-11" value="codigo_pz" style="ellipse;whiteSpace=wrap;html=1;align=center;fontStyle=4;fillColor=#dae8fc;strokeColor=#6c8ebf;" vertex="1" parent="1">
          <mxGeometry x="410" y="270" width="80" height="30" as="geometry" />
        </mxCell>
        <mxCell id="lAmJWh5BscD6mKWXJsh0-16" value="" style="edgeStyle=orthogonalEdgeStyle;rounded=0;orthogonalLoop=1;jettySize=auto;html=1;" edge="1" parent="1" source="lAmJWh5BscD6mKWXJsh0-12" target="lAmJWh5BscD6mKWXJsh0-3">
          <mxGeometry relative="1" as="geometry" />
        </mxCell>
        <mxCell id="lAmJWh5BscD6mKWXJsh0-12" value="codigo_ct" style="ellipse;whiteSpace=wrap;html=1;align=center;fontStyle=4;fillColor=#d5e8d4;strokeColor=#82b366;" vertex="1" parent="1">
          <mxGeometry x="805" y="240" width="70" height="30" as="geometry" />
        </mxCell>
        <mxCell id="lAmJWh5BscD6mKWXJsh0-21" style="edgeStyle=orthogonalEdgeStyle;rounded=0;orthogonalLoop=1;jettySize=auto;html=1;entryX=0.5;entryY=1;entryDx=0;entryDy=0;" edge="1" parent="1" source="lAmJWh5BscD6mKWXJsh0-17" target="lAmJWh5BscD6mKWXJsh0-4">
          <mxGeometry relative="1" as="geometry" />
        </mxCell>
        <mxCell id="lAmJWh5BscD6mKWXJsh0-17" value="&lt;span style=&quot;border-bottom: 1px dotted&quot;&gt;codigo_pz&lt;/span&gt;" style="ellipse;whiteSpace=wrap;html=1;align=center;fillColor=#dae8fc;strokeColor=#6c8ebf;" vertex="1" parent="1">
          <mxGeometry x="300" y="430" width="80" height="30" as="geometry" />
        </mxCell>
        <mxCell id="lAmJWh5BscD6mKWXJsh0-22" style="edgeStyle=orthogonalEdgeStyle;rounded=0;orthogonalLoop=1;jettySize=auto;html=1;entryX=0.5;entryY=1;entryDx=0;entryDy=0;" edge="1" parent="1" source="lAmJWh5BscD6mKWXJsh0-18" target="lAmJWh5BscD6mKWXJsh0-4">
          <mxGeometry relative="1" as="geometry" />
        </mxCell>
        <mxCell id="lAmJWh5BscD6mKWXJsh0-18" value="&lt;span style=&quot;border-bottom: 1px dotted&quot;&gt;codigo_pv&lt;/span&gt;" style="ellipse;whiteSpace=wrap;html=1;align=center;fillColor=#ffe6cc;strokeColor=#d79b00;" vertex="1" parent="1">
          <mxGeometry x="190" y="430" width="80" height="30" as="geometry" />
        </mxCell>
        <mxCell id="lAmJWh5BscD6mKWXJsh0-20" style="edgeStyle=orthogonalEdgeStyle;rounded=0;orthogonalLoop=1;jettySize=auto;html=1;entryX=0.5;entryY=0;entryDx=0;entryDy=0;" edge="1" parent="1" source="lAmJWh5BscD6mKWXJsh0-19" target="lAmJWh5BscD6mKWXJsh0-1">
          <mxGeometry relative="1" as="geometry" />
        </mxCell>
        <mxCell id="lAmJWh5BscD6mKWXJsh0-19" value="&lt;span style=&quot;border-bottom: 1px dotted&quot;&gt;codigo_ct&lt;/span&gt;" style="ellipse;whiteSpace=wrap;html=1;align=center;fillColor=#d5e8d4;strokeColor=#82b366;" vertex="1" parent="1">
          <mxGeometry x="530" y="270" width="70" height="30" as="geometry" />
        </mxCell>
        <mxCell id="lAmJWh5BscD6mKWXJsh0-23" value="1" style="text;strokeColor=none;fillColor=none;spacingLeft=4;spacingRight=4;overflow=hidden;rotatable=0;points=[[0,0.5],[1,0.5]];portConstraint=eastwest;fontSize=12;whiteSpace=wrap;html=1;" vertex="1" parent="1">
          <mxGeometry x="580" y="320" width="20" height="20" as="geometry" />
        </mxCell>
        <mxCell id="lAmJWh5BscD6mKWXJsh0-24" value="1:N" style="text;strokeColor=none;fillColor=none;spacingLeft=4;spacingRight=4;overflow=hidden;rotatable=0;points=[[0,0.5],[1,0.5]];portConstraint=eastwest;fontSize=12;whiteSpace=wrap;html=1;" vertex="1" parent="1">
          <mxGeometry x="610" y="310" width="30" height="20" as="geometry" />
        </mxCell>
        <mxCell id="lAmJWh5BscD6mKWXJsh0-25" value="1" style="text;strokeColor=none;fillColor=none;spacingLeft=4;spacingRight=4;overflow=hidden;rotatable=0;points=[[0,0.5],[1,0.5]];portConstraint=eastwest;fontSize=12;whiteSpace=wrap;html=1;" vertex="1" parent="1">
          <mxGeometry x="480" y="320" width="20" height="20" as="geometry" />
        </mxCell>
        <mxCell id="lAmJWh5BscD6mKWXJsh0-26" value="1" style="text;strokeColor=none;fillColor=none;spacingLeft=4;spacingRight=4;overflow=hidden;rotatable=0;points=[[0,0.5],[1,0.5]];portConstraint=eastwest;fontSize=12;whiteSpace=wrap;html=1;" vertex="1" parent="1">
          <mxGeometry x="400" y="320" width="20" height="20" as="geometry" />
        </mxCell>
        <mxCell id="lAmJWh5BscD6mKWXJsh0-27" value="1" style="text;strokeColor=none;fillColor=none;spacingLeft=4;spacingRight=4;overflow=hidden;rotatable=0;points=[[0,0.5],[1,0.5]];portConstraint=eastwest;fontSize=12;whiteSpace=wrap;html=1;" vertex="1" parent="1">
          <mxGeometry x="140" y="320" width="20" height="20" as="geometry" />
        </mxCell>
        <mxCell id="lAmJWh5BscD6mKWXJsh0-28" value="N" style="text;strokeColor=none;fillColor=none;spacingLeft=4;spacingRight=4;overflow=hidden;rotatable=0;points=[[0,0.5],[1,0.5]];portConstraint=eastwest;fontSize=12;whiteSpace=wrap;html=1;" vertex="1" parent="1">
          <mxGeometry x="650" y="320" width="20" height="20" as="geometry" />
        </mxCell>
        <mxCell id="lAmJWh5BscD6mKWXJsh0-29" value="N" style="text;strokeColor=none;fillColor=none;spacingLeft=4;spacingRight=4;overflow=hidden;rotatable=0;points=[[0,0.5],[1,0.5]];portConstraint=eastwest;fontSize=12;whiteSpace=wrap;html=1;" vertex="1" parent="1">
          <mxGeometry x="330" y="320" width="20" height="20" as="geometry" />
        </mxCell>
        <mxCell id="lAmJWh5BscD6mKWXJsh0-30" value="N" style="text;strokeColor=none;fillColor=none;spacingLeft=4;spacingRight=4;overflow=hidden;rotatable=0;points=[[0,0.5],[1,0.5]];portConstraint=eastwest;fontSize=12;whiteSpace=wrap;html=1;" vertex="1" parent="1">
          <mxGeometry x="220" y="320" width="20" height="20" as="geometry" />
        </mxCell>
        <mxCell id="lAmJWh5BscD6mKWXJsh0-32" value="N:M" style="text;strokeColor=none;fillColor=none;spacingLeft=4;spacingRight=4;overflow=hidden;rotatable=0;points=[[0,0.5],[1,0.5]];portConstraint=eastwest;fontSize=12;whiteSpace=wrap;html=1;" vertex="1" parent="1">
          <mxGeometry x="270" y="300" width="40" height="20" as="geometry" />
        </mxCell>
        <mxCell id="lAmJWh5BscD6mKWXJsh0-35" value="1" style="text;strokeColor=none;fillColor=none;spacingLeft=4;spacingRight=4;overflow=hidden;rotatable=0;points=[[0,0.5],[1,0.5]];portConstraint=eastwest;fontSize=12;whiteSpace=wrap;html=1;" vertex="1" parent="1">
          <mxGeometry x="740" y="320" width="20" height="20" as="geometry" />
        </mxCell>
        <mxCell id="lAmJWh5BscD6mKWXJsh0-40" style="edgeStyle=orthogonalEdgeStyle;rounded=0;orthogonalLoop=1;jettySize=auto;html=1;entryX=0.5;entryY=0;entryDx=0;entryDy=0;startArrow=classic;startFill=1;endArrow=none;endFill=0;" edge="1" parent="1" source="lAmJWh5BscD6mKWXJsh0-36" target="lAmJWh5BscD6mKWXJsh0-4">
          <mxGeometry relative="1" as="geometry" />
        </mxCell>
        <mxCell id="lAmJWh5BscD6mKWXJsh0-36" value="cantidad" style="ellipse;whiteSpace=wrap;html=1;align=center;fillColor=#6a00ff;fontColor=#ffffff;strokeColor=#3700CC;" vertex="1" parent="1">
          <mxGeometry x="250" y="240" width="70" height="20" as="geometry" />
        </mxCell>
        <mxCell id="lAmJWh5BscD6mKWXJsh0-38" style="edgeStyle=orthogonalEdgeStyle;rounded=0;orthogonalLoop=1;jettySize=auto;html=1;entryX=0.5;entryY=1;entryDx=0;entryDy=0;" edge="1" parent="1" source="lAmJWh5BscD6mKWXJsh0-37" target="lAmJWh5BscD6mKWXJsh0-4">
          <mxGeometry relative="1" as="geometry" />
        </mxCell>
        <mxCell id="lAmJWh5BscD6mKWXJsh0-37" value="fecha" style="ellipse;whiteSpace=wrap;html=1;align=center;fontStyle=4;fillColor=#6a00ff;fontColor=#ffffff;strokeColor=#3700CC;" vertex="1" parent="1">
          <mxGeometry x="255" y="480" width="60" height="30" as="geometry" />
        </mxCell>
        <mxCell id="lAmJWh5BscD6mKWXJsh0-42" value="direccion" style="ellipse;whiteSpace=wrap;html=1;align=center;fillColor=#ffe6cc;strokeColor=#d79b00;" vertex="1" parent="1">
          <mxGeometry x="-70" y="260" width="70" height="20" as="geometry" />
        </mxCell>
        <mxCell id="lAmJWh5BscD6mKWXJsh0-43" value="nombre" style="ellipse;whiteSpace=wrap;html=1;align=center;fillColor=#ffe6cc;strokeColor=#d79b00;" vertex="1" parent="1">
          <mxGeometry x="-60" y="440" width="60" height="25" as="geometry" />
        </mxCell>
        <mxCell id="lAmJWh5BscD6mKWXJsh0-44" value="ciudad" style="ellipse;whiteSpace=wrap;html=1;align=center;fillColor=#ffe6cc;strokeColor=#d79b00;" vertex="1" parent="1">
          <mxGeometry x="-90" y="320" width="50" height="20" as="geometry" />
        </mxCell>
        <mxCell id="lAmJWh5BscD6mKWXJsh0-45" value="provincia" style="ellipse;whiteSpace=wrap;html=1;align=center;fillColor=#ffe6cc;strokeColor=#d79b00;" vertex="1" parent="1">
          <mxGeometry x="-100" y="380" width="60" height="25" as="geometry" />
        </mxCell>
        <mxCell id="lAmJWh5BscD6mKWXJsh0-54" value="color" style="ellipse;whiteSpace=wrap;html=1;align=center;fillColor=#dae8fc;strokeColor=#6c8ebf;" vertex="1" parent="1">
          <mxGeometry x="440" y="420" width="50" height="20" as="geometry" />
        </mxCell>
        <mxCell id="lAmJWh5BscD6mKWXJsh0-55" value="nombre" style="ellipse;whiteSpace=wrap;html=1;align=center;fillColor=#dae8fc;strokeColor=#6c8ebf;" vertex="1" parent="1">
          <mxGeometry x="485" y="455" width="60" height="20" as="geometry" />
        </mxCell>
        <mxCell id="lAmJWh5BscD6mKWXJsh0-56" value="precio" style="ellipse;whiteSpace=wrap;html=1;align=center;fillColor=#dae8fc;strokeColor=#6c8ebf;" vertex="1" parent="1">
          <mxGeometry x="540" y="420" width="50" height="30" as="geometry" />
        </mxCell>
        <mxCell id="lAmJWh5BscD6mKWXJsh0-60" value="nombre" style="ellipse;whiteSpace=wrap;html=1;align=center;fillColor=#d5e8d4;strokeColor=#82b366;" vertex="1" parent="1">
          <mxGeometry x="810" y="410" width="60" height="20" as="geometry" />
        </mxCell>
      </root>
    </mxGraphModel>
  </diagram>
</mxfile>
